<!-- re:MIND — outlined paths, zero padding -->
<svg xmlns="http://www.w3.org/2000/svg" viewBox="0 0 506 96" role="img" aria-label="re:MIND">
  <g fill="currentColor">
    <!-- re: -->
    <path d="M72.4 18.4C58.5 18.4 46.8 30 46.8 44s11.7 25.6 25.6 25.6c8.8 0 15.4-3.4 20.2-8.7v7.5h16.8V19.6H92.6v7.7c-4.8-5.4-11.4-8.9-20.2-8.9Zm4.6 13.8c8.1 0 14.2 6.2 14.2 11.8s-6.1 11.8-14.2 11.8c-8.3 0-14.5-6.1-14.5-11.8 0-5.7 6.2-11.8 14.5-11.8Z"/>
    <path d="M18.4 66.6V19.6H1.6v47h16.8Z"/>
    <circle cx="136.6" cy="28.6" r="9.6"/>
    <circle cx="136.6" cy="56.9" r="9.6"/>
    <!-- M -->
    <path d="M209.2 66.6h-18.1V19.6h21l17.1 28.7 17-28.7h21v47h-18.1V40.9l-12.9 20.9h-13.2l-12.8-20.8v25.6Z"/>
    <!-- I -->
    <path d="M325.8 66.6h-18.1v-47h18.1v47Z"/>
    <!-- N -->
    <path d="M403.4 66.6h-18.1V41l-20.2 25.6h-13.7v-47h18.1v25.5l20.3-25.5h13.6v47Z"/>
    <!-- D -->
    <path d="M430.1 66.6V19.6h34.5c20.6 0 34.8 10.7 34.8 23.5 0 12.9-14.2 23.5-34.8 23.5h-34.5Zm18.1-14.8h16.4c10.5 0 16.3-5.1 16.3-8.7 0-3.6-5.8-8.7-16.3-8.7h-16.4v17.4Z"/>
  </g>
</svg>
